# xmcd
#
# Track frame offsets:
#	150
#	11892
#	24587
#	34921
#	47548
#	60064
#	71445
#	83589
#	93668
#	104552
#	115922
#	127652
#	140691
#	149437
#	162217
#	173824
#	184060
#	194230
#	203653
#	213344
#	224037
#	235419
#	244550
#
# Disc length: 3424 seconds
#
# Revision: 1
# Processed by: cddbd v1.5.2PL0 Copyright (c) Steve Scherf et al.
# Submitted via: audiograbber 1.83.01
#
DISCID=4e0d5e17
DTITLE=Various Artist - Stompin' 29: More Fifties R 'n' B Pounders
DYEAR=1900
DGENRE=Blues
TTITLE0=Snookum Russell - Juke Box Boogie Woogie Chick
TTITLE1=Big Walter - Gamblin' Woman
TTITLE2=Willie Egans - What A Shame
TTITLE3=Buddy Lowe - Goodbye Baby
TTITLE4=Smoki Whitfield - Function At The Junction
TTITLE5=Crown Prince Waterford - Get Your Clothes And Let's Go
TTITLE6=Billy Brooks - I'm Gone
TTITLE7=Bee Bee Queen - Yes Sir'ee
TTITLE8=Rosco Gordon - Tummer Tee
TTITLE9=Scotty Mann - Just A Little Bit Of Lovin'
TTITLE10=Frankie Tucker - Hey Hester
TTITLE11=Sonny Parker - She Sets My Soul On Fire
TTITLE12=Dave Bartholomew - Can't Take It No More
TTITLE13=Ike Perkins - Ike's Boogie
TTITLE14=Cousin Joe - Sleepwalkin' Woman
TTITLE15=Willie Egans - Wow Wow
TTITLE16=Big John - Astronote Blues
TTITLE17=Buddy Lowe - Run Fast, Don't Walk
TTITLE18=Oscar Black - Into Each Heart
TTITLE19=Big Walter - Pack Fair And Square
TTITLE20=Smoki Whitfield - Take The Hint
TTITLE21=Jimmy Williams - Big Legged Woman
TTITLE22=Vernon Anders - All Messed Up
EXTD=
EXTT0=
EXTT1=
EXTT2=
EXTT3=
EXTT4=
EXTT5=
EXTT6=
EXTT7=
EXTT8=
EXTT9=
EXTT10=
EXTT11=
EXTT12=
EXTT13=
EXTT14=
EXTT15=
EXTT16=
EXTT17=
EXTT18=
EXTT19=
EXTT20=
EXTT21=
EXTT22=
PLAYORDER=
